<svg width="214" height="38" viewBox="0 0 214 38" fill="none" xmlns="http://www.w3.org/2000/svg">
<path d="M0.132 29V3.8H11.04C12.624 3.8 14.04 4.16 15.288 4.88C16.536 5.6 17.52 6.584 18.24 7.832C18.96 9.056 19.32 10.46 19.32 12.044C19.32 13.652 18.96 15.104 18.24 16.4C17.52 17.696 16.536 18.716 15.288 19.46C14.04 20.204 12.624 20.576 11.04 20.576H6.288V29H0.132ZM6.216 15.14H10.212C10.74 15.14 11.208 15.02 11.616 14.78C12.048 14.516 12.396 14.156 12.66 13.7C12.924 13.244 13.056 12.728 13.056 12.152C13.056 11.552 12.924 11.036 12.66 10.604C12.396 10.172 12.048 9.836 11.616 9.596C11.208 9.356 10.74 9.236 10.212 9.236H6.216V15.14ZM30.3484 29V17.264C30.3484 16.28 30.0724 15.56 29.5204 15.104C28.9924 14.624 28.2484 14.384 27.2884 14.384C26.3524 14.384 25.5124 14.564 24.7684 14.924C24.0484 15.26 23.3524 15.824 22.6804 16.616L19.2244 13.268C20.3764 12.092 21.6964 11.168 23.1844 10.496C24.6724 9.824 26.2924 9.488 28.0444 9.488C29.6524 9.488 31.0444 9.728 32.2204 10.208C33.3964 10.688 34.3084 11.42 34.9564 12.404C35.6044 13.388 35.9284 14.636 35.9284 16.148V29H30.3484ZM25.3804 29.36C24.1804 29.36 23.0884 29.12 22.1044 28.64C21.1444 28.16 20.3764 27.5 19.8004 26.66C19.2484 25.796 18.9724 24.788 18.9724 23.636C18.9724 22.652 19.1524 21.788 19.5124 21.044C19.8724 20.3 20.4004 19.688 21.0964 19.208C21.8164 18.704 22.7044 18.332 23.7604 18.092C24.8404 17.828 26.0884 17.696 27.5044 17.696H33.3004L32.9764 21.332H27.6484C27.1444 21.332 26.7004 21.38 26.3164 21.476C25.9324 21.548 25.6084 21.68 25.3444 21.872C25.0804 22.04 24.8764 22.244 24.7324 22.484C24.6124 22.724 24.5524 23.012 24.5524 23.348C24.5524 23.708 24.6484 24.02 24.8404 24.284C25.0324 24.548 25.2844 24.752 25.5964 24.896C25.9324 25.04 26.3164 25.112 26.7484 25.112C27.3724 25.112 27.9604 25.016 28.5124 24.824C29.0884 24.608 29.5924 24.308 30.0244 23.924C30.4804 23.54 30.8404 23.096 31.1044 22.592L32.1124 25.184C31.6084 26 30.9964 26.72 30.2764 27.344C29.5804 27.968 28.8124 28.46 27.9724 28.82C27.1564 29.18 26.2924 29.36 25.3804 29.36ZM39.6971 37.28L44.0531 27.056L44.1251 30.08L34.8731 9.884H41.4251L45.4571 19.532C45.6731 19.988 45.8771 20.504 46.0691 21.08C46.2611 21.656 46.4051 22.196 46.5011 22.7L45.6731 23.168C45.8171 22.808 45.9731 22.352 46.1411 21.8C46.3331 21.248 46.5371 20.66 46.7531 20.036L50.2811 9.884H56.8691L48.7691 29L45.4931 37.28H39.6971ZM57.3045 29V3.8H67.9245C69.7725 3.8 71.4645 4.112 73.0005 4.736C74.5365 5.336 75.8565 6.2 76.9605 7.328C78.0645 8.432 78.9165 9.764 79.5165 11.324C80.1165 12.86 80.4165 14.552 80.4165 16.4C80.4165 18.272 80.1165 19.976 79.5165 21.512C78.9165 23.048 78.0645 24.38 76.9605 25.508C75.8565 26.612 74.5365 27.476 73.0005 28.1C71.4885 28.7 69.7965 29 67.9245 29H57.3045ZM63.4605 24.752L62.6685 23.564H67.7445C68.7285 23.564 69.6165 23.396 70.4085 23.06C71.2005 22.724 71.8725 22.244 72.4245 21.62C73.0005 20.972 73.4325 20.216 73.7205 19.352C74.0325 18.464 74.1885 17.48 74.1885 16.4C74.1885 15.32 74.0325 14.348 73.7205 13.484C73.4325 12.596 73.0005 11.84 72.4245 11.216C71.8725 10.568 71.2005 10.076 70.4085 9.74C69.6165 9.404 68.7285 9.236 67.7445 9.236H62.5605L63.4605 8.12V24.752ZM81.9811 29V9.884H87.7771V29H81.9811ZM84.8971 6.104C83.7931 6.104 82.9291 5.852 82.3051 5.348C81.7051 4.82 81.4051 4.076 81.4051 3.116C81.4051 2.228 81.7171 1.508 82.3411 0.955998C82.9651 0.403998 83.8171 0.127998 84.8971 0.127998C85.9531 0.127998 86.7811 0.391999 87.3811 0.919999C88.0051 1.424 88.3171 2.156 88.3171 3.116C88.3171 4.004 88.0051 4.724 87.3811 5.276C86.7811 5.828 85.9531 6.104 84.8971 6.104ZM99.0915 37.28C97.5555 37.28 96.0075 37.052 94.4475 36.596C92.9115 36.164 91.6635 35.588 90.7035 34.868L92.7195 30.764C93.4875 31.292 94.3515 31.7 95.3115 31.988C96.2955 32.3 97.3155 32.456 98.3715 32.456C99.5955 32.456 100.591 32.276 101.359 31.916C102.127 31.556 102.691 31.016 103.051 30.296C103.435 29.576 103.627 28.676 103.627 27.596V24.428L104.707 24.644C104.563 25.388 104.155 26.084 103.483 26.732C102.835 27.38 102.031 27.896 101.071 28.28C100.111 28.664 99.1035 28.856 98.0475 28.856C96.3195 28.856 94.7715 28.46 93.4035 27.668C92.0355 26.852 90.9555 25.736 90.1635 24.32C89.3955 22.88 89.0115 21.224 89.0115 19.352C89.0115 17.432 89.3955 15.728 90.1635 14.24C90.9555 12.752 92.0235 11.588 93.3675 10.748C94.7115 9.908 96.2235 9.488 97.9035 9.488C98.5995 9.488 99.2715 9.572 99.9195 9.74C100.591 9.884 101.203 10.1 101.755 10.388C102.331 10.676 102.835 11 103.267 11.36C103.723 11.72 104.095 12.116 104.383 12.548C104.671 12.98 104.851 13.412 104.923 13.844L103.735 14.204L103.951 9.884H109.46V27.416C109.46 28.976 109.22 30.368 108.739 31.592C108.283 32.816 107.599 33.848 106.687 34.688C105.799 35.528 104.719 36.164 103.447 36.596C102.175 37.052 100.723 37.28 99.0915 37.28ZM99.2355 24.356C100.171 24.356 100.975 24.152 101.647 23.744C102.343 23.336 102.871 22.76 103.231 22.016C103.615 21.272 103.807 20.408 103.807 19.424C103.807 18.392 103.615 17.504 103.231 16.76C102.871 16.016 102.343 15.44 101.647 15.032C100.975 14.6 100.171 14.384 99.2355 14.384C98.3475 14.384 97.5675 14.6 96.8955 15.032C96.2235 15.44 95.6955 16.016 95.3115 16.76C94.9515 17.504 94.7715 18.38 94.7715 19.388C94.7715 20.396 94.9515 21.272 95.3115 22.016C95.6955 22.76 96.2235 23.336 96.8955 23.744C97.5675 24.152 98.3475 24.356 99.2355 24.356ZM111.905 29V9.884H117.701V29H111.905ZM114.821 6.104C113.717 6.104 112.853 5.852 112.229 5.348C111.629 4.82 111.329 4.076 111.329 3.116C111.329 2.228 111.641 1.508 112.265 0.955998C112.889 0.403998 113.741 0.127998 114.821 0.127998C115.877 0.127998 116.705 0.391999 117.305 0.919999C117.929 1.424 118.241 2.156 118.241 3.116C118.241 4.004 117.929 4.724 117.305 5.276C116.705 5.828 115.877 6.104 114.821 6.104ZM121.851 29V5.06H127.647V29H121.851ZM118.467 14.96V9.884H131.319V14.96H118.467ZM141.778 29V17.264C141.778 16.28 141.502 15.56 140.95 15.104C140.422 14.624 139.678 14.384 138.718 14.384C137.782 14.384 136.942 14.564 136.198 14.924C135.478 15.26 134.782 15.824 134.11 16.616L130.654 13.268C131.806 12.092 133.126 11.168 134.614 10.496C136.102 9.824 137.722 9.488 139.474 9.488C141.082 9.488 142.474 9.728 143.65 10.208C144.826 10.688 145.738 11.42 146.386 12.404C147.034 13.388 147.358 14.636 147.358 16.148V29H141.778ZM136.81 29.36C135.61 29.36 134.518 29.12 133.534 28.64C132.574 28.16 131.806 27.5 131.23 26.66C130.678 25.796 130.402 24.788 130.402 23.636C130.402 22.652 130.582 21.788 130.942 21.044C131.302 20.3 131.83 19.688 132.526 19.208C133.246 18.704 134.134 18.332 135.19 18.092C136.27 17.828 137.518 17.696 138.934 17.696H144.73L144.406 21.332H139.078C138.574 21.332 138.13 21.38 137.746 21.476C137.362 21.548 137.038 21.68 136.774 21.872C136.51 22.04 136.306 22.244 136.162 22.484C136.042 22.724 135.982 23.012 135.982 23.348C135.982 23.708 136.078 24.02 136.27 24.284C136.462 24.548 136.714 24.752 137.026 24.896C137.362 25.04 137.746 25.112 138.178 25.112C138.802 25.112 139.39 25.016 139.942 24.824C140.518 24.608 141.022 24.308 141.454 23.924C141.91 23.54 142.27 23.096 142.534 22.592L143.542 25.184C143.038 26 142.426 26.72 141.706 27.344C141.01 27.968 140.242 28.46 139.402 28.82C138.586 29.18 137.722 29.36 136.81 29.36ZM149.101 29V2.36H154.897V29H149.101Z" fill="url(#paint0_linear_867_1280)"/>
<path d="M166.887 29V3.8H176.751C178.119 3.8 179.331 4.124 180.387 4.772C181.467 5.42 182.319 6.308 182.943 7.436C183.567 8.564 183.879 9.848 183.879 11.288C183.879 12.752 183.567 14.072 182.943 15.248C182.319 16.424 181.467 17.36 180.387 18.056C179.331 18.752 178.119 19.1 176.751 19.1H169.731V29H166.887ZM169.731 16.328H176.751C177.567 16.328 178.287 16.112 178.911 15.68C179.535 15.224 180.027 14.612 180.387 13.844C180.771 13.076 180.963 12.224 180.963 11.288C180.963 10.376 180.771 9.572 180.387 8.876C180.027 8.156 179.535 7.592 178.911 7.184C178.287 6.752 177.567 6.536 176.751 6.536H169.731V16.328ZM185.32 29V10.1H188.056L188.092 15.572L187.768 14.636C188.008 13.772 188.416 12.968 188.992 12.224C189.592 11.48 190.312 10.892 191.152 10.46C191.992 10.004 192.916 9.776 193.924 9.776C194.332 9.776 194.716 9.812 195.076 9.884C195.436 9.932 195.736 10.004 195.976 10.1L195.256 13.088C194.92 12.968 194.572 12.872 194.212 12.8C193.876 12.704 193.552 12.656 193.24 12.656C192.496 12.656 191.8 12.812 191.152 13.124C190.528 13.412 189.988 13.808 189.532 14.312C189.076 14.816 188.716 15.392 188.452 16.04C188.212 16.664 188.092 17.312 188.092 17.984V29H185.32ZM203.558 29.36C201.71 29.36 200.054 28.94 198.59 28.1C197.15 27.236 196.01 26.072 195.17 24.608C194.33 23.12 193.91 21.428 193.91 19.532C193.91 17.636 194.33 15.956 195.17 14.492C196.01 13.028 197.15 11.876 198.59 11.036C200.054 10.196 201.71 9.776 203.558 9.776C205.406 9.776 207.05 10.196 208.49 11.036C209.954 11.876 211.094 13.028 211.91 14.492C212.75 15.956 213.17 17.636 213.17 19.532C213.17 21.428 212.75 23.12 211.91 24.608C211.094 26.072 209.954 27.236 208.49 28.1C207.05 28.94 205.406 29.36 203.558 29.36ZM203.558 26.84C204.878 26.84 206.054 26.528 207.086 25.904C208.142 25.256 208.958 24.38 209.534 23.276C210.134 22.172 210.422 20.924 210.398 19.532C210.422 18.116 210.134 16.868 209.534 15.788C208.958 14.708 208.142 13.856 207.086 13.232C206.054 12.608 204.878 12.296 203.558 12.296C202.238 12.296 201.05 12.608 199.994 13.232C198.962 13.856 198.146 14.72 197.546 15.824C196.946 16.904 196.658 18.14 196.682 19.532C196.658 20.924 196.946 22.172 197.546 23.276C198.146 24.38 198.962 25.256 199.994 25.904C201.05 26.528 202.238 26.84 203.558 26.84Z" fill="#B28B00"/>
<defs>
<linearGradient id="paint0_linear_867_1280" x1="-3" y1="15" x2="219.787" y2="15" gradientUnits="userSpaceOnUse">
<stop stop-color="#9554FF"/>
<stop offset="1" stop-color="#5A3399"/>
</linearGradient>
</defs>
</svg>
